<svg width="20" height="21" viewBox="0 0 20 21" fill="none" xmlns="http://www.w3.org/2000/svg">
<path d="M5.83293 12.8583C5.98906 13.0135 6.20027 13.1006 6.42043 13.1006C6.64058 13.1006 6.85179 13.0135 7.00793 12.8583L9.9996 9.90826L12.9496 12.8583C13.1057 13.0135 13.3169 13.1006 13.5371 13.1006C13.7573 13.1006 13.9685 13.0135 14.1246 12.8583C14.2027 12.7808 14.2647 12.6886 14.307 12.5871C14.3493 12.4855 14.3711 12.3766 14.3711 12.2666C14.3711 12.1566 14.3493 12.0477 14.307 11.9461C14.2647 11.8446 14.2027 11.7524 14.1246 11.6749L10.5913 8.14159C10.5138 8.06349 10.4216 8.00149 10.3201 7.95918C10.2185 7.91688 10.1096 7.89509 9.9996 7.89509C9.88959 7.89509 9.78066 7.91688 9.67911 7.95918C9.57756 8.00149 9.4854 8.06349 9.40793 8.14159L5.83293 11.6749C5.75482 11.7524 5.69283 11.8446 5.65052 11.9461C5.60821 12.0477 5.58643 12.1566 5.58643 12.2666C5.58643 12.3766 5.60821 12.4855 5.65052 12.5871C5.69283 12.6886 5.75482 12.7808 5.83293 12.8583Z" fill="#5E3C33"/>
</svg>
